<svg id="visual" viewBox="0 0 900 600" width="900" height="600" xmlns="http://www.w3.org/2000/svg" xmlns:xlink="http://www.w3.org/1999/xlink" version="1.1"><g stroke-width="1" stroke-linejoin="bevel"><path d="M470 289.3L487.3 308.3L540.3 254.2Z" fill="#112e42" stroke="#112e42"></path><path d="M487.3 308.3L530.5 306.7L540.3 254.2Z" fill="#081a28" stroke="#081a28"></path><path d="M540.3 254.2L527.3 228.7L470 289.3Z" fill="#297ea6" stroke="#297ea6"></path><path d="M530.5 306.7L574.8 262.7L540.3 254.2Z" fill="#081a28" stroke="#081a28"></path><path d="M540.3 254.2L574.8 262.7L527.3 228.7Z" fill="#081a28" stroke="#081a28"></path><path d="M530.5 306.7L594.5 284.3L574.8 262.7Z" fill="#205a7a" stroke="#205a7a"></path><path d="M527.3 228.7L436 211.2L470 289.3Z" fill="#112e42" stroke="#112e42"></path><path d="M450 364.8L530.5 366.8L487.3 308.3Z" fill="#246688" stroke="#246688"></path><path d="M487.3 308.3L530.5 366.8L530.5 306.7Z" fill="#15384f" stroke="#15384f"></path><path d="M530.5 306.7L530.5 366.8L594.5 284.3Z" fill="#081a28" stroke="#081a28"></path><path d="M436 211.2L405 248.7L470 289.3Z" fill="#246688" stroke="#246688"></path><path d="M470 289.3L450 364.8L487.3 308.3Z" fill="#19435d" stroke="#19435d"></path><path d="M584.5 171.2L546.3 175.6L527.3 228.7Z" fill="#246688" stroke="#246688"></path><path d="M527.3 228.7L437.8 170.6L436 211.2Z" fill="#19435d" stroke="#19435d"></path><path d="M562.5 166.6L546.3 175.6L584.5 171.2Z" fill="#00101c" stroke="#00101c"></path><path d="M390.8 283.3L450 364.8L470 289.3Z" fill="#00101c" stroke="#00101c"></path><path d="M405 248.7L390.8 283.3L470 289.3Z" fill="#297ea6" stroke="#297ea6"></path><path d="M437.8 170.6L422.8 189.2L436 211.2Z" fill="#246688" stroke="#246688"></path><path d="M436 211.2L422.8 189.2L405 248.7Z" fill="#112e42" stroke="#112e42"></path><path d="M405 248.7L383.5 255.7L390.8 283.3Z" fill="#15384f" stroke="#15384f"></path><path d="M584.5 171.2L527.3 228.7L574.8 262.7Z" fill="#0c2435" stroke="#0c2435"></path><path d="M546.3 175.6L437.8 170.6L527.3 228.7Z" fill="#1d4e6b" stroke="#1d4e6b"></path><path d="M438 123.6L437.8 170.6L546.3 175.6Z" fill="#19435d" stroke="#19435d"></path><path d="M422.8 189.2L383.5 255.7L405 248.7Z" fill="#081a28" stroke="#081a28"></path><path d="M459.3 404.4L538.3 393.8L530.5 366.8Z" fill="#081a28" stroke="#081a28"></path><path d="M652.8 369.8L658 326.3L594.5 284.3Z" fill="#15384f" stroke="#15384f"></path><path d="M639 252.7L584.5 171.2L574.8 262.7Z" fill="#112e42" stroke="#112e42"></path><path d="M658.8 285.3L639 252.7L594.5 284.3Z" fill="#277297" stroke="#277297"></path><path d="M594.5 284.3L639 252.7L574.8 262.7Z" fill="#15384f" stroke="#15384f"></path><path d="M412.8 444.4L459.3 404.4L450 364.8Z" fill="#15384f" stroke="#15384f"></path><path d="M450 364.8L459.3 404.4L530.5 366.8Z" fill="#0c2435" stroke="#0c2435"></path><path d="M352.8 262.7L378.5 343.3L390.8 283.3Z" fill="#15384f" stroke="#15384f"></path><path d="M390.8 283.3L378.5 343.3L450 364.8Z" fill="#297ea6" stroke="#297ea6"></path><path d="M315.3 405.4L377.8 349.8L293.5 388.8Z" fill="#205a7a" stroke="#205a7a"></path><path d="M378.5 343.3L377.8 349.8L450 364.8Z" fill="#00101c" stroke="#00101c"></path><path d="M658 326.3L658.8 285.3L594.5 284.3Z" fill="#297ea6" stroke="#297ea6"></path><path d="M338.5 246.2L352.8 262.7L383.5 255.7Z" fill="#19435d" stroke="#19435d"></path><path d="M383.5 255.7L352.8 262.7L390.8 283.3Z" fill="#1d4e6b" stroke="#1d4e6b"></path><path d="M338.5 246.2L383.5 255.7L327.3 194.2Z" fill="#1d4e6b" stroke="#1d4e6b"></path><path d="M652.8 369.8L594.5 284.3L530.5 366.8Z" fill="#112e42" stroke="#112e42"></path><path d="M636.8 177.2L593.5 137.1L584.5 171.2Z" fill="#1d4e6b" stroke="#1d4e6b"></path><path d="M584.5 171.2L593.5 137.1L562.5 166.6Z" fill="#15384f" stroke="#15384f"></path><path d="M524.3 85.1L438 123.6L546.3 175.6Z" fill="#00101c" stroke="#00101c"></path><path d="M636.8 177.2L584.5 171.2L639 252.7Z" fill="#1d4e6b" stroke="#1d4e6b"></path><path d="M695.3 204.6L636.8 177.2L639 252.7Z" fill="#205a7a" stroke="#205a7a"></path><path d="M524.3 85.1L546.3 175.6L562.5 166.6Z" fill="#00101c" stroke="#00101c"></path><path d="M437.8 170.6L377.8 145.1L422.8 189.2Z" fill="#15384f" stroke="#15384f"></path><path d="M327.3 194.2L383.5 255.7L422.8 189.2Z" fill="#297ea6" stroke="#297ea6"></path><path d="M293.5 388.8L377.8 349.8L378.5 343.3Z" fill="#15384f" stroke="#15384f"></path><path d="M538.3 393.8L652.8 369.8L530.5 366.8Z" fill="#297ea6" stroke="#297ea6"></path><path d="M438 123.6L377.8 145.1L437.8 170.6Z" fill="#19435d" stroke="#19435d"></path><path d="M418.8 456.9L474.3 457.9L459.3 404.4Z" fill="#15384f" stroke="#15384f"></path><path d="M459.3 404.4L474.3 457.9L538.3 393.8Z" fill="#00101c" stroke="#00101c"></path><path d="M635.8 461.4L676 403.4L652.8 369.8Z" fill="#246688" stroke="#246688"></path><path d="M593.5 137.1L524.3 85.1L562.5 166.6Z" fill="#246688" stroke="#246688"></path><path d="M371.8 98.5L355.5 141.1L377.8 145.1Z" fill="#00101c" stroke="#00101c"></path><path d="M474.3 457.9L523.5 464.4L538.3 393.8Z" fill="#081a28" stroke="#081a28"></path><path d="M315.5 408.4L412.8 444.4L377.8 349.8Z" fill="#277297" stroke="#277297"></path><path d="M377.8 349.8L412.8 444.4L450 364.8Z" fill="#19435d" stroke="#19435d"></path><path d="M377.8 145.1L327.3 194.2L422.8 189.2Z" fill="#277297" stroke="#277297"></path><path d="M371.8 98.5L377.8 145.1L438 123.6Z" fill="#00101c" stroke="#00101c"></path><path d="M377.8 145.1L355.5 141.1L327.3 194.2Z" fill="#277297" stroke="#277297"></path><path d="M712.3 296.7L695.3 204.6L658.8 285.3Z" fill="#1d4e6b" stroke="#1d4e6b"></path><path d="M658.8 285.3L695.3 204.6L639 252.7Z" fill="#081a28" stroke="#081a28"></path><path d="M636.8 177.2L662.8 143.6L593.5 137.1Z" fill="#246688" stroke="#246688"></path><path d="M593.5 137.1L581.8 70.1L524.3 85.1Z" fill="#205a7a" stroke="#205a7a"></path><path d="M712.3 296.7L658.8 285.3L658 326.3Z" fill="#0c2435" stroke="#0c2435"></path><path d="M412.8 444.4L418.8 456.9L459.3 404.4Z" fill="#297ea6" stroke="#297ea6"></path><path d="M474.3 457.9L491 482.4L523.5 464.4Z" fill="#15384f" stroke="#15384f"></path><path d="M695.3 204.6L662.8 143.6L636.8 177.2Z" fill="#112e42" stroke="#112e42"></path><path d="M693 365.8L712.3 296.7L658 326.3Z" fill="#15384f" stroke="#15384f"></path><path d="M676 403.4L693 365.8L652.8 369.8Z" fill="#15384f" stroke="#15384f"></path><path d="M652.8 369.8L693 365.8L658 326.3Z" fill="#19435d" stroke="#19435d"></path><path d="M524.3 85.1L479 67.1L438 123.6Z" fill="#112e42" stroke="#112e42"></path><path d="M476 508.9L491 482.4L474.3 457.9Z" fill="#081a28" stroke="#081a28"></path><path d="M684.3 408.8L676 403.4L635.8 461.4Z" fill="#277297" stroke="#277297"></path><path d="M635.8 461.4L652.8 369.8L538.3 393.8Z" fill="#081a28" stroke="#081a28"></path><path d="M662.8 143.6L581.8 70.1L593.5 137.1Z" fill="#297ea6" stroke="#297ea6"></path><path d="M524.3 85.1L540.3 14.5L479 67.1Z" fill="#00101c" stroke="#00101c"></path><path d="M418 31.5L371.8 98.5L438 123.6Z" fill="#00101c" stroke="#00101c"></path><path d="M355.5 141.1L346.5 119.6L327.3 194.2Z" fill="#112e42" stroke="#112e42"></path><path d="M371.8 98.5L346.5 119.6L355.5 141.1Z" fill="#297ea6" stroke="#297ea6"></path><path d="M751.5 211.2L714 195.2L695.3 204.6Z" fill="#246688" stroke="#246688"></path><path d="M695.3 204.6L714 164.6L662.8 143.6Z" fill="#205a7a" stroke="#205a7a"></path><path d="M635.8 461.4L538.3 393.8L523.5 464.4Z" fill="#0c2435" stroke="#0c2435"></path><path d="M676 403.4L684.3 408.8L693 365.8Z" fill="#081a28" stroke="#081a28"></path><path d="M748.5 321.3L738.3 298.3L712.3 296.7Z" fill="#15384f" stroke="#15384f"></path><path d="M580.5 512.9L635.8 461.4L523.5 464.4Z" fill="#19435d" stroke="#19435d"></path><path d="M378.5 343.3L352.8 262.7L263.3 305.7Z" fill="#19435d" stroke="#19435d"></path><path d="M293.5 388.8L378.5 343.3L263.3 305.7Z" fill="#081a28" stroke="#081a28"></path><path d="M412.8 444.4L305.5 464.9L418.8 456.9Z" fill="#0c2435" stroke="#0c2435"></path><path d="M315.3 405.4L315.5 408.4L377.8 349.8Z" fill="#246688" stroke="#246688"></path><path d="M748.5 321.3L712.3 296.7L693 365.8Z" fill="#0c2435" stroke="#0c2435"></path><path d="M712.3 296.7L751.5 211.2L695.3 204.6Z" fill="#1d4e6b" stroke="#1d4e6b"></path><path d="M597.8 17.5L575.5 49.5L581.8 70.1Z" fill="#277297" stroke="#277297"></path><path d="M581.8 70.1L575.5 49.5L524.3 85.1Z" fill="#15384f" stroke="#15384f"></path><path d="M597.8 17.5L581.8 70.1L659 11.5Z" fill="#081a28" stroke="#081a28"></path><path d="M751.5 211.2L714 164.6L714 195.2Z" fill="#081a28" stroke="#081a28"></path><path d="M714 195.2L714 164.6L695.3 204.6Z" fill="#246688" stroke="#246688"></path><path d="M418.8 456.9L476 508.9L474.3 457.9Z" fill="#19435d" stroke="#19435d"></path><path d="M572.5 538.5L580.5 512.9L523.5 464.4Z" fill="#246688" stroke="#246688"></path><path d="M437.8 537.5L476 508.9L418.8 456.9Z" fill="#15384f" stroke="#15384f"></path><path d="M315.3 405.4L293.5 388.8L315.5 408.4Z" fill="#112e42" stroke="#112e42"></path><path d="M263.3 305.7L352.8 262.7L338.5 246.2Z" fill="#19435d" stroke="#19435d"></path><path d="M224 250.2L338.5 246.2L327.3 194.2Z" fill="#112e42" stroke="#112e42"></path><path d="M224 250.2L263.3 305.7L338.5 246.2Z" fill="#1d4e6b" stroke="#1d4e6b"></path><path d="M811.5 340.8L748.5 321.3L813.8 353.8Z" fill="#205a7a" stroke="#205a7a"></path><path d="M738.3 298.3L751.5 211.2L712.3 296.7Z" fill="#19435d" stroke="#19435d"></path><path d="M572.5 538.5L523.5 464.4L491 482.4Z" fill="#277297" stroke="#277297"></path><path d="M765.5 299.7L751.5 211.2L738.3 298.3Z" fill="#112e42" stroke="#112e42"></path><path d="M479 67.1L418 31.5L438 123.6Z" fill="#1d4e6b" stroke="#1d4e6b"></path><path d="M371.8 98.5L284.3 101.1L346.5 119.6Z" fill="#112e42" stroke="#112e42"></path><path d="M481 0L418 31.5L479 67.1Z" fill="#00101c" stroke="#00101c"></path><path d="M811.5 340.8L765.5 299.7L748.5 321.3Z" fill="#19435d" stroke="#19435d"></path><path d="M748.5 321.3L765.5 299.7L738.3 298.3Z" fill="#00101c" stroke="#00101c"></path><path d="M597.8 17.5L540.3 14.5L575.5 49.5Z" fill="#0c2435" stroke="#0c2435"></path><path d="M575.5 49.5L540.3 14.5L524.3 85.1Z" fill="#1d4e6b" stroke="#1d4e6b"></path><path d="M263.3 305.7L251.3 350.8L293.5 388.8Z" fill="#19435d" stroke="#19435d"></path><path d="M398.8 0L383.5 33.5L418 31.5Z" fill="#15384f" stroke="#15384f"></path><path d="M418 31.5L383.5 33.5L371.8 98.5Z" fill="#0c2435" stroke="#0c2435"></path><path d="M211 338.3L236 347.8L263.3 305.7Z" fill="#205a7a" stroke="#205a7a"></path><path d="M707.3 87.1L581.8 70.1L662.8 143.6Z" fill="#081a28" stroke="#081a28"></path><path d="M707.3 87.1L662.8 143.6L714 164.6Z" fill="#081a28" stroke="#081a28"></path><path d="M259 392.4L315.5 408.4L293.5 388.8Z" fill="#19435d" stroke="#19435d"></path><path d="M305.5 464.9L412.8 444.4L315.5 408.4Z" fill="#112e42" stroke="#112e42"></path><path d="M310.5 513.5L437.8 537.5L418.8 456.9Z" fill="#297ea6" stroke="#297ea6"></path><path d="M476 508.9L572.5 538.5L491 482.4Z" fill="#205a7a" stroke="#205a7a"></path><path d="M522.3 574.5L572.5 538.5L476 508.9Z" fill="#277297" stroke="#277297"></path><path d="M580.5 512.9L627.8 520.9L635.8 461.4Z" fill="#246688" stroke="#246688"></path><path d="M705 466.9L708.3 462.4L684.3 408.8Z" fill="#277297" stroke="#277297"></path><path d="M251.3 350.8L259 392.4L293.5 388.8Z" fill="#297ea6" stroke="#297ea6"></path><path d="M592.8 0L491.3 0L540.3 14.5Z" fill="#1d4e6b" stroke="#1d4e6b"></path><path d="M540.3 14.5L491.3 0L479 67.1Z" fill="#081a28" stroke="#081a28"></path><path d="M714 86.1L707.3 87.1L714 164.6Z" fill="#15384f" stroke="#15384f"></path><path d="M491.3 0L481 0L479 67.1Z" fill="#246688" stroke="#246688"></path><path d="M572.5 538.5L627.8 520.9L580.5 512.9Z" fill="#00101c" stroke="#00101c"></path><path d="M684.3 408.8L802.5 443.9L693 365.8Z" fill="#0c2435" stroke="#0c2435"></path><path d="M236 347.8L245.3 363.3L251.3 350.8Z" fill="#246688" stroke="#246688"></path><path d="M251.3 350.8L245.3 363.3L259 392.4Z" fill="#0c2435" stroke="#0c2435"></path><path d="M437.8 537.5L453 544.5L476 508.9Z" fill="#15384f" stroke="#15384f"></path><path d="M705 466.9L684.3 408.8L635.8 461.4Z" fill="#277297" stroke="#277297"></path><path d="M259 392.4L305.5 464.9L315.5 408.4Z" fill="#112e42" stroke="#112e42"></path><path d="M655 526.5L705 466.9L635.8 461.4Z" fill="#246688" stroke="#246688"></path><path d="M765.5 299.7L777.3 204.2L751.5 211.2Z" fill="#0c2435" stroke="#0c2435"></path><path d="M751.5 211.2L777.3 204.2L714 164.6Z" fill="#277297" stroke="#277297"></path><path d="M782.5 86.5L714 86.1L714 164.6Z" fill="#00101c" stroke="#00101c"></path><path d="M659 11.5L602.5 0L597.8 17.5Z" fill="#277297" stroke="#277297"></path><path d="M248.3 162.6L327.3 194.2L284.3 101.1Z" fill="#205a7a" stroke="#205a7a"></path><path d="M263.3 305.7L236 347.8L251.3 350.8Z" fill="#15384f" stroke="#15384f"></path><path d="M245.3 363.3L191 450.9L259 392.4Z" fill="#297ea6" stroke="#297ea6"></path><path d="M284.3 101.1L327.3 194.2L346.5 119.6Z" fill="#00101c" stroke="#00101c"></path><path d="M312.3 0L284.3 101.1L371.8 98.5Z" fill="#00101c" stroke="#00101c"></path><path d="M248.3 162.6L224 250.2L327.3 194.2Z" fill="#1d4e6b" stroke="#1d4e6b"></path><path d="M779.5 466.4L720.3 460.9L750.3 535.5Z" fill="#297ea6" stroke="#297ea6"></path><path d="M705 466.9L720.3 460.9L708.3 462.4Z" fill="#246688" stroke="#246688"></path><path d="M708.3 462.4L720.3 460.9L684.3 408.8Z" fill="#205a7a" stroke="#205a7a"></path><path d="M602.5 0L592.8 0L597.8 17.5Z" fill="#19435d" stroke="#19435d"></path><path d="M597.8 17.5L592.8 0L540.3 14.5Z" fill="#112e42" stroke="#112e42"></path><path d="M659 11.5L581.8 70.1L707.3 87.1Z" fill="#297ea6" stroke="#297ea6"></path><path d="M627.8 520.9L655 526.5L635.8 461.4Z" fill="#081a28" stroke="#081a28"></path><path d="M625.8 565.5L655 526.5L627.8 520.9Z" fill="#277297" stroke="#277297"></path><path d="M481 0L398.8 0L418 31.5Z" fill="#081a28" stroke="#081a28"></path><path d="M383.5 33.5L312.3 0L371.8 98.5Z" fill="#277297" stroke="#277297"></path><path d="M284.3 101.1L253 122.6L248.3 162.6Z" fill="#19435d" stroke="#19435d"></path><path d="M160.8 206.6L200 268.7L224 250.2Z" fill="#297ea6" stroke="#297ea6"></path><path d="M198.8 90.1L253 122.6L284.3 101.1Z" fill="#0c2435" stroke="#0c2435"></path><path d="M782.5 86.5L707.3 54.5L714 86.1Z" fill="#205a7a" stroke="#205a7a"></path><path d="M714 86.1L707.3 54.5L707.3 87.1Z" fill="#15384f" stroke="#15384f"></path><path d="M224 250.2L206.8 294.3L263.3 305.7Z" fill="#277297" stroke="#277297"></path><path d="M236 347.8L211 338.3L245.3 363.3Z" fill="#297ea6" stroke="#297ea6"></path><path d="M200 268.7L206.8 294.3L224 250.2Z" fill="#0c2435" stroke="#0c2435"></path><path d="M453 544.5L522.3 574.5L476 508.9Z" fill="#0c2435" stroke="#0c2435"></path><path d="M572.5 538.5L625.8 565.5L627.8 520.9Z" fill="#15384f" stroke="#15384f"></path><path d="M206.8 294.3L211 338.3L263.3 305.7Z" fill="#19435d" stroke="#19435d"></path><path d="M274.3 524.9L310.5 513.5L305.5 464.9Z" fill="#205a7a" stroke="#205a7a"></path><path d="M707.3 54.5L659 11.5L707.3 87.1Z" fill="#246688" stroke="#246688"></path><path d="M160.8 206.6L224 250.2L248.3 162.6Z" fill="#19435d" stroke="#19435d"></path><path d="M206.8 294.3L181.8 347.8L211 338.3Z" fill="#081a28" stroke="#081a28"></path><path d="M398.8 0L364.5 0L383.5 33.5Z" fill="#00101c" stroke="#00101c"></path><path d="M305.5 464.9L310.5 513.5L418.8 456.9Z" fill="#246688" stroke="#246688"></path><path d="M406.8 600L494 600L453 544.5Z" fill="#205a7a" stroke="#205a7a"></path><path d="M453 544.5L494 600L522.3 574.5Z" fill="#1d4e6b" stroke="#1d4e6b"></path><path d="M274.3 524.9L305.5 464.9L191 450.9Z" fill="#1d4e6b" stroke="#1d4e6b"></path><path d="M813.8 353.8L748.5 321.3L693 365.8Z" fill="#205a7a" stroke="#205a7a"></path><path d="M765.5 299.7L817.8 311.7L777.3 204.2Z" fill="#297ea6" stroke="#297ea6"></path><path d="M811.5 340.8L817.8 311.7L765.5 299.7Z" fill="#19435d" stroke="#19435d"></path><path d="M549.3 600L625.8 565.5L572.5 538.5Z" fill="#297ea6" stroke="#297ea6"></path><path d="M750.3 535.5L720.3 460.9L705 466.9Z" fill="#19435d" stroke="#19435d"></path><path d="M802.5 443.9L813.8 353.8L693 365.8Z" fill="#1d4e6b" stroke="#1d4e6b"></path><path d="M811.5 340.8L861.8 348.3L817.8 311.7Z" fill="#246688" stroke="#246688"></path><path d="M817.8 311.7L815.5 188.6L777.3 204.2Z" fill="#19435d" stroke="#19435d"></path><path d="M777.3 204.2L782.5 86.5L714 164.6Z" fill="#246688" stroke="#246688"></path><path d="M406.8 600L453 544.5L437.8 537.5Z" fill="#19435d" stroke="#19435d"></path><path d="M522.3 574.5L549.3 600L572.5 538.5Z" fill="#112e42" stroke="#112e42"></path><path d="M494 600L546.5 600L522.3 574.5Z" fill="#15384f" stroke="#15384f"></path><path d="M689 0L688.3 0L707.3 54.5Z" fill="#246688" stroke="#246688"></path><path d="M707.3 54.5L688.3 0L659 11.5Z" fill="#205a7a" stroke="#205a7a"></path><path d="M659 11.5L688.3 0L602.5 0Z" fill="#205a7a" stroke="#205a7a"></path><path d="M546.5 600L549.3 600L522.3 574.5Z" fill="#205a7a" stroke="#205a7a"></path><path d="M772.5 0L689 0L707.3 54.5Z" fill="#19435d" stroke="#19435d"></path><path d="M127.8 295.7L181.8 347.8L206.8 294.3Z" fill="#277297" stroke="#277297"></path><path d="M211 338.3L181.8 347.8L245.3 363.3Z" fill="#1d4e6b" stroke="#1d4e6b"></path><path d="M804.5 95.1L782.5 86.5L777.3 204.2Z" fill="#0c2435" stroke="#0c2435"></path><path d="M750.3 535.5L705 466.9L655 526.5Z" fill="#205a7a" stroke="#205a7a"></path><path d="M720.3 460.9L802.5 443.9L684.3 408.8Z" fill="#081a28" stroke="#081a28"></path><path d="M364.5 0L312.3 0L383.5 33.5Z" fill="#19435d" stroke="#19435d"></path><path d="M323.3 562.5L406.8 600L437.8 537.5Z" fill="#1d4e6b" stroke="#1d4e6b"></path><path d="M312.3 0L283.3 15.5L284.3 101.1Z" fill="#081a28" stroke="#081a28"></path><path d="M185.8 99.5L160.8 206.6L248.3 162.6Z" fill="#277297" stroke="#277297"></path><path d="M779.5 466.4L802.5 443.9L720.3 460.9Z" fill="#205a7a" stroke="#205a7a"></path><path d="M274.3 524.9L323.3 562.5L310.5 513.5Z" fill="#19435d" stroke="#19435d"></path><path d="M310.5 513.5L323.3 562.5L437.8 537.5Z" fill="#00101c" stroke="#00101c"></path><path d="M191 450.9L305.5 464.9L259 392.4Z" fill="#0c2435" stroke="#0c2435"></path><path d="M818.8 107.1L804.5 95.1L777.3 204.2Z" fill="#15384f" stroke="#15384f"></path><path d="M782.5 86.5L772.5 0L707.3 54.5Z" fill="#1d4e6b" stroke="#1d4e6b"></path><path d="M185.8 99.5L248.3 162.6L253 122.6Z" fill="#246688" stroke="#246688"></path><path d="M200 268.7L127.8 295.7L206.8 294.3Z" fill="#15384f" stroke="#15384f"></path><path d="M802.5 443.9L834.8 401.4L813.8 353.8Z" fill="#1d4e6b" stroke="#1d4e6b"></path><path d="M813.8 353.8L861.8 348.3L811.5 340.8Z" fill="#081a28" stroke="#081a28"></path><path d="M900 259.2L854.8 181.2L815.5 188.6Z" fill="#205a7a" stroke="#205a7a"></path><path d="M852.8 148.6L818.8 107.1L815.5 188.6Z" fill="#112e42" stroke="#112e42"></path><path d="M815.5 188.6L818.8 107.1L777.3 204.2Z" fill="#00101c" stroke="#00101c"></path><path d="M549.3 600L646.8 600L625.8 565.5Z" fill="#297ea6" stroke="#297ea6"></path><path d="M625.8 565.5L646.8 600L655 526.5Z" fill="#00101c" stroke="#00101c"></path><path d="M779.5 466.4L862.8 478.9L802.5 443.9Z" fill="#1d4e6b" stroke="#1d4e6b"></path><path d="M698 600L750.3 535.5L655 526.5Z" fill="#19435d" stroke="#19435d"></path><path d="M900 459.4L900 339.8L834.8 401.4Z" fill="#112e42" stroke="#112e42"></path><path d="M247 13.5L198.8 90.1L284.3 101.1Z" fill="#297ea6" stroke="#297ea6"></path><path d="M900 259.2L815.5 188.6L817.8 311.7Z" fill="#246688" stroke="#246688"></path><path d="M181.8 347.8L191 450.9L245.3 363.3Z" fill="#1d4e6b" stroke="#1d4e6b"></path><path d="M135.5 447.4L191 450.9L181.8 347.8Z" fill="#15384f" stroke="#15384f"></path><path d="M834.8 401.4L861.8 348.3L813.8 353.8Z" fill="#15384f" stroke="#15384f"></path><path d="M179 71.1L185.8 99.5L198.8 90.1Z" fill="#277297" stroke="#277297"></path><path d="M198.8 90.1L185.8 99.5L253 122.6Z" fill="#19435d" stroke="#19435d"></path><path d="M283.3 15.5L247 13.5L284.3 101.1Z" fill="#00101c" stroke="#00101c"></path><path d="M248 0L247 13.5L283.3 15.5Z" fill="#205a7a" stroke="#205a7a"></path><path d="M854.8 181.2L852.8 148.6L815.5 188.6Z" fill="#297ea6" stroke="#297ea6"></path><path d="M315.3 600L333.5 600L323.3 562.5Z" fill="#1d4e6b" stroke="#1d4e6b"></path><path d="M323.3 562.5L333.5 600L406.8 600Z" fill="#112e42" stroke="#112e42"></path><path d="M315.3 600L323.3 562.5L251 600Z" fill="#246688" stroke="#246688"></path><path d="M312.3 0L248 0L283.3 15.5Z" fill="#15384f" stroke="#15384f"></path><path d="M247 13.5L179 71.1L198.8 90.1Z" fill="#00101c" stroke="#00101c"></path><path d="M251 600L323.3 562.5L274.3 524.9Z" fill="#1d4e6b" stroke="#1d4e6b"></path><path d="M646.8 600L698 600L655 526.5Z" fill="#19435d" stroke="#19435d"></path><path d="M124.8 244.2L200 268.7L160.8 206.6Z" fill="#1d4e6b" stroke="#1d4e6b"></path><path d="M124.8 244.2L127.8 295.7L200 268.7Z" fill="#081a28" stroke="#081a28"></path><path d="M871.8 43.5L804.5 95.1L818.8 107.1Z" fill="#205a7a" stroke="#205a7a"></path><path d="M848.8 0L782.5 86.5L804.5 95.1Z" fill="#297ea6" stroke="#297ea6"></path><path d="M848.8 0L772.5 0L782.5 86.5Z" fill="#1d4e6b" stroke="#1d4e6b"></path><path d="M104.5 256.2L124.8 244.2L95.5 241.7Z" fill="#246688" stroke="#246688"></path><path d="M142.5 0L179 71.1L247 13.5Z" fill="#081a28" stroke="#081a28"></path><path d="M95.5 241.7L124.8 244.2L83.3 216.2Z" fill="#19435d" stroke="#19435d"></path><path d="M900 291.3L900 266.7L817.8 311.7Z" fill="#00101c" stroke="#00101c"></path><path d="M854.8 181.2L900 183.6L852.8 148.6Z" fill="#1d4e6b" stroke="#1d4e6b"></path><path d="M900 266.7L900 259.2L817.8 311.7Z" fill="#246688" stroke="#246688"></path><path d="M861.8 348.3L900 291.3L817.8 311.7Z" fill="#297ea6" stroke="#297ea6"></path><path d="M900 339.8L900 291.3L861.8 348.3Z" fill="#19435d" stroke="#19435d"></path><path d="M31.3 384.8L118.5 365.3L9.3 339.3Z" fill="#112e42" stroke="#112e42"></path><path d="M127.8 295.7L118.5 365.3L181.8 347.8Z" fill="#205a7a" stroke="#205a7a"></path><path d="M191 450.9L183 512.5L274.3 524.9Z" fill="#1d4e6b" stroke="#1d4e6b"></path><path d="M862.8 478.9L834.8 401.4L802.5 443.9Z" fill="#19435d" stroke="#19435d"></path><path d="M834.8 401.4L900 339.8L861.8 348.3Z" fill="#297ea6" stroke="#297ea6"></path><path d="M144.5 463.9L183 512.5L191 450.9Z" fill="#246688" stroke="#246688"></path><path d="M124.8 244.2L160.8 206.6L83.3 216.2Z" fill="#00101c" stroke="#00101c"></path><path d="M124.8 244.2L104.5 256.2L127.8 295.7Z" fill="#277297" stroke="#277297"></path><path d="M698 600L741.3 600L750.3 535.5Z" fill="#297ea6" stroke="#297ea6"></path><path d="M838.8 531.5L862.8 478.9L779.5 466.4Z" fill="#297ea6" stroke="#297ea6"></path><path d="M900 259.2L900 183.6L854.8 181.2Z" fill="#277297" stroke="#277297"></path><path d="M852.8 148.6L900 118.1L818.8 107.1Z" fill="#297ea6" stroke="#297ea6"></path><path d="M136.8 450.9L144.5 463.9L191 450.9Z" fill="#246688" stroke="#246688"></path><path d="M118.5 365.3L135.5 447.4L181.8 347.8Z" fill="#081a28" stroke="#081a28"></path><path d="M135.5 447.4L136.8 450.9L191 450.9Z" fill="#277297" stroke="#277297"></path><path d="M838.8 531.5L779.5 466.4L750.3 535.5Z" fill="#0c2435" stroke="#0c2435"></path><path d="M107.5 145.1L160.8 206.6L185.8 99.5Z" fill="#277297" stroke="#277297"></path><path d="M9.3 339.3L118.5 365.3L127.8 295.7Z" fill="#081a28" stroke="#081a28"></path><path d="M741.3 600L800.5 564.5L750.3 535.5Z" fill="#205a7a" stroke="#205a7a"></path><path d="M183 512.5L251 600L274.3 524.9Z" fill="#15384f" stroke="#15384f"></path><path d="M165.8 587.5L251 600L183 512.5Z" fill="#277297" stroke="#277297"></path><path d="M179 71.1L107.5 145.1L185.8 99.5Z" fill="#15384f" stroke="#15384f"></path><path d="M800.5 564.5L838.8 531.5L750.3 535.5Z" fill="#277297" stroke="#277297"></path><path d="M136.8 450.9L132.8 469.4L144.5 463.9Z" fill="#246688" stroke="#246688"></path><path d="M144.5 463.9L132.8 469.4L183 512.5Z" fill="#081a28" stroke="#081a28"></path><path d="M135.5 447.4L132.8 469.4L136.8 450.9Z" fill="#205a7a" stroke="#205a7a"></path><path d="M86.3 475.4L132.8 469.4L135.5 447.4Z" fill="#1d4e6b" stroke="#1d4e6b"></path><path d="M103.5 404.8L135.5 447.4L118.5 365.3Z" fill="#246688" stroke="#246688"></path><path d="M31.3 384.8L103.5 404.8L118.5 365.3Z" fill="#19435d" stroke="#19435d"></path><path d="M900 183.6L900 118.1L852.8 148.6Z" fill="#246688" stroke="#246688"></path><path d="M83.3 216.2L81.3 241.7L95.5 241.7Z" fill="#112e42" stroke="#112e42"></path><path d="M95.5 241.7L81.3 241.7L104.5 256.2Z" fill="#0c2435" stroke="#0c2435"></path><path d="M107.5 145.1L83.3 216.2L160.8 206.6Z" fill="#112e42" stroke="#112e42"></path><path d="M900 118.1L871.8 43.5L818.8 107.1Z" fill="#205a7a" stroke="#205a7a"></path><path d="M900 500.5L900 459.4L862.8 478.9Z" fill="#15384f" stroke="#15384f"></path><path d="M862.8 478.9L900 459.4L834.8 401.4Z" fill="#1d4e6b" stroke="#1d4e6b"></path><path d="M66.3 82.1L86.5 147.6L107.5 145.1Z" fill="#297ea6" stroke="#297ea6"></path><path d="M107.5 145.1L86.5 147.6L83.3 216.2Z" fill="#205a7a" stroke="#205a7a"></path><path d="M9.3 339.3L104.5 256.2L0 317.3Z" fill="#15384f" stroke="#15384f"></path><path d="M93.3 57.5L107.5 145.1L179 71.1Z" fill="#1d4e6b" stroke="#1d4e6b"></path><path d="M871.8 43.5L848.8 0L804.5 95.1Z" fill="#297ea6" stroke="#297ea6"></path><path d="M800.5 564.5L815.5 600L838.8 531.5Z" fill="#112e42" stroke="#112e42"></path><path d="M838.8 531.5L900 500.5L862.8 478.9Z" fill="#277297" stroke="#277297"></path><path d="M741.3 600L808.8 600L800.5 564.5Z" fill="#1d4e6b" stroke="#1d4e6b"></path><path d="M808.8 600L815.5 600L800.5 564.5Z" fill="#15384f" stroke="#15384f"></path><path d="M900 528.9L900 500.5L838.8 531.5Z" fill="#246688" stroke="#246688"></path><path d="M248 0L142.5 0L247 13.5Z" fill="#246688" stroke="#246688"></path><path d="M142.5 0L137.8 0L179 71.1Z" fill="#297ea6" stroke="#297ea6"></path><path d="M140.5 600L183 512.5L65.5 513.5Z" fill="#297ea6" stroke="#297ea6"></path><path d="M140.5 600L165.8 587.5L183 512.5Z" fill="#246688" stroke="#246688"></path><path d="M103.5 404.8L86.3 475.4L135.5 447.4Z" fill="#246688" stroke="#246688"></path><path d="M31.3 384.8L86.3 475.4L103.5 404.8Z" fill="#15384f" stroke="#15384f"></path><path d="M137.8 0L93.3 57.5L179 71.1Z" fill="#0c2435" stroke="#0c2435"></path><path d="M900 118.1L900 20.5L871.8 43.5Z" fill="#246688" stroke="#246688"></path><path d="M871.8 43.5L900 20.5L848.8 0Z" fill="#00101c" stroke="#00101c"></path><path d="M900 600L900 528.9L838.8 531.5Z" fill="#277297" stroke="#277297"></path><path d="M900 20.5L900 0L848.8 0Z" fill="#081a28" stroke="#081a28"></path><path d="M88.5 28.5L66.3 82.1L93.3 57.5Z" fill="#081a28" stroke="#081a28"></path><path d="M93.3 57.5L66.3 82.1L107.5 145.1Z" fill="#00101c" stroke="#00101c"></path><path d="M0 184.2L0 189.6L83.3 216.2Z" fill="#081a28" stroke="#081a28"></path><path d="M9.3 339.3L127.8 295.7L104.5 256.2Z" fill="#205a7a" stroke="#205a7a"></path><path d="M137.8 0L88.5 28.5L93.3 57.5Z" fill="#1d4e6b" stroke="#1d4e6b"></path><path d="M140.5 600L147.8 600L165.8 587.5Z" fill="#00101c" stroke="#00101c"></path><path d="M165.8 587.5L147.8 600L251 600Z" fill="#081a28" stroke="#081a28"></path><path d="M0 317.3L81.3 241.7L0 228.7Z" fill="#15384f" stroke="#15384f"></path><path d="M65.5 513.5L183 512.5L132.8 469.4Z" fill="#1d4e6b" stroke="#1d4e6b"></path><path d="M0 88.1L33.3 123.6L66.3 82.1Z" fill="#15384f" stroke="#15384f"></path><path d="M137.8 0L100.3 0L88.5 28.5Z" fill="#1d4e6b" stroke="#1d4e6b"></path><path d="M65.5 513.5L132.8 469.4L86.3 475.4Z" fill="#297ea6" stroke="#297ea6"></path><path d="M0 88.1L66.3 82.1L0 85.5Z" fill="#112e42" stroke="#112e42"></path><path d="M66.3 82.1L33.3 123.6L86.5 147.6Z" fill="#246688" stroke="#246688"></path><path d="M0 317.3L104.5 256.2L81.3 241.7Z" fill="#0c2435" stroke="#0c2435"></path><path d="M0 459.9L65.5 513.5L86.3 475.4Z" fill="#15384f" stroke="#15384f"></path><path d="M0 459.9L86.3 475.4L31.3 384.8Z" fill="#19435d" stroke="#19435d"></path><path d="M0 228.7L81.3 241.7L83.3 216.2Z" fill="#246688" stroke="#246688"></path><path d="M9.3 339.3L0 345.8L31.3 384.8Z" fill="#297ea6" stroke="#297ea6"></path><path d="M0 189.6L0 228.7L83.3 216.2Z" fill="#00101c" stroke="#00101c"></path><path d="M0 317.3L0 345.8L9.3 339.3Z" fill="#15384f" stroke="#15384f"></path><path d="M815.5 600L900 600L838.8 531.5Z" fill="#246688" stroke="#246688"></path><path d="M0 184.2L83.3 216.2L86.5 147.6Z" fill="#15384f" stroke="#15384f"></path><path d="M0 88.1L0 184.2L33.3 123.6Z" fill="#205a7a" stroke="#205a7a"></path><path d="M33.3 123.6L0 184.2L86.5 147.6Z" fill="#205a7a" stroke="#205a7a"></path><path d="M0 345.8L0 405.4L31.3 384.8Z" fill="#081a28" stroke="#081a28"></path><path d="M0 459.9L40.3 529.9L65.5 513.5Z" fill="#19435d" stroke="#19435d"></path><path d="M65.5 513.5L36.3 547.5L140.5 600Z" fill="#246688" stroke="#246688"></path><path d="M0 85.5L66.3 82.1L0 0Z" fill="#297ea6" stroke="#297ea6"></path><path d="M0 405.4L0 459.9L31.3 384.8Z" fill="#00101c" stroke="#00101c"></path><path d="M0 0L66.3 82.1L88.5 28.5Z" fill="#00101c" stroke="#00101c"></path><path d="M0 543.5L36.3 547.5L40.3 529.9Z" fill="#0c2435" stroke="#0c2435"></path><path d="M40.3 529.9L36.3 547.5L65.5 513.5Z" fill="#0c2435" stroke="#0c2435"></path><path d="M0 459.9L0 543.5L40.3 529.9Z" fill="#246688" stroke="#246688"></path><path d="M36.3 547.5L18.3 600L140.5 600Z" fill="#297ea6" stroke="#297ea6"></path><path d="M100.3 0L0 0L88.5 28.5Z" fill="#0c2435" stroke="#0c2435"></path><path d="M0 543.5L18.3 600L36.3 547.5Z" fill="#19435d" stroke="#19435d"></path><path d="M0 543.5L0 600L18.3 600Z" fill="#297ea6" stroke="#297ea6"></path></g></svg>