<svg id="visual" viewBox="0 0 900 600" width="900" height="600" xmlns="http://www.w3.org/2000/svg" xmlns:xlink="http://www.w3.org/1999/xlink" version="1.1"><rect width="900" height="600" fill="#ffffff"></rect><g><g transform="translate(329 475)"><path d="M0 -91.7L79.4 -45.8L79.4 45.8L0 91.7L-79.4 45.8L-79.4 -45.8Z" fill="#007EA7"></path></g><g transform="translate(226 124)"><path d="M0 -84L72.7 -42L72.7 42L0 84L-72.7 42L-72.7 -42Z" fill="#007EA7"></path></g><g transform="translate(832 116)"><path d="M0 -86L74.5 -43L74.5 43L0 86L-74.5 43L-74.5 -43Z" fill="#007EA7"></path></g><g transform="translate(68 432)"><path d="M0 -80L69.3 -40L69.3 40L0 80L-69.3 40L-69.3 -40Z" fill="#007EA7"></path></g><g transform="translate(2 40)"><path d="M0 -88L76.2 -44L76.2 44L0 88L-76.2 44L-76.2 -44Z" fill="#007EA7"></path></g></g></svg>