<svg id="visual" viewBox="0 0 900 675" width="900" height="675" xmlns="http://www.w3.org/2000/svg" xmlns:xlink="http://www.w3.org/1999/xlink" version="1.1">
  <rect width="900" height="675" fill="#ffffff"/>
  <g>
    <g transform="translate(239 539)">
      <path d="M0 -42.6L36.9 -21.3L36.9 21.3L0 42.6L-36.9 21.3L-36.9 -21.3Z" fill="#007EA7" fill-opacity="0.1"/>
    </g>
    <g transform="translate(102 255)">
      <path d="M0 -27L23.4 -13.5L23.4 13.5L0 27L-23.4 13.5L-23.4 -13.5Z" fill="#007EA7" fill-opacity="0.1"/>
    </g>
    <g transform="translate(786 472)">
      <path d="M0 -30L26 -15L26 15L0 30L-26 15L-26 -15Z" fill="#007EA7" fill-opacity="0.1"/>
    </g>
    <g transform="translate(671 536)">
      <path d="M0 -13L11.3 -6.5L11.3 6.5L0 13L-11.3 6.5L-11.3 -6.5Z" fill="#007EA7" fill-opacity="0.1"/>
    </g>
    <g transform="translate(695 363)">
      <path d="M0 -13L11.3 -6.5L11.3 6.5L0 13L-11.3 6.5L-11.3 -6.5Z" fill="#007EA7" fill-opacity="0.1"/>
    </g>
    <g transform="translate(688 221)">
      <path d="M0 -21L18.2 -10.5L18.2 10.5L0 21L-18.2 10.5L-18.2 -10.5Z" fill="#007EA7" fill-opacity="0.1"/>
    </g>
    <g transform="translate(260 18)">
      <path d="M0 -14L12.1 -7L12.1 7L0 14L-12.1 7L-12.1 -7Z" fill="#007EA7" fill-opacity="0.1"/>
    </g>
  </g>
</svg>
